<mxfile host="app.diagrams.net" agent="Mozilla/5.0 (Windows NT 10.0; Win64; x64) AppleWebKit/537.36 (KHTML, like Gecko) Chrome/127.0.0.0 Safari/537.36" version="24.7.7">
  <diagram name="Page-1" id="FNKdaKImi394lbaXC5Hu">
    <mxGraphModel dx="1050" dy="522" grid="1" gridSize="10" guides="1" tooltips="1" connect="1" arrows="1" fold="1" page="1" pageScale="1" pageWidth="1169" pageHeight="827" math="0" shadow="0">
      <root>
        <mxCell id="0" />
        <mxCell id="1" parent="0" />
        <mxCell id="9bw9Z91mL2RfnUhRrSIE-1" value="" style="endArrow=classic;html=1;rounded=0;strokeWidth=2;strokeColor=#00CC00;" edge="1" parent="1">
          <mxGeometry width="50" height="50" relative="1" as="geometry">
            <mxPoint x="160" y="400" as="sourcePoint" />
            <mxPoint x="160" y="80" as="targetPoint" />
          </mxGeometry>
        </mxCell>
        <mxCell id="9bw9Z91mL2RfnUhRrSIE-2" value="" style="endArrow=classic;html=1;rounded=0;strokeWidth=2;strokeColor=#307DF0;" edge="1" parent="1">
          <mxGeometry width="50" height="50" relative="1" as="geometry">
            <mxPoint x="160" y="400" as="sourcePoint" />
            <mxPoint x="920" y="400" as="targetPoint" />
          </mxGeometry>
        </mxCell>
        <mxCell id="9bw9Z91mL2RfnUhRrSIE-3" value="Time" style="text;html=1;align=center;verticalAlign=middle;whiteSpace=wrap;rounded=0;fontStyle=1" vertex="1" parent="1">
          <mxGeometry x="470" y="410" width="60" height="30" as="geometry" />
        </mxCell>
        <mxCell id="9bw9Z91mL2RfnUhRrSIE-4" value="Back&lt;div&gt;Log&lt;/div&gt;" style="text;html=1;align=center;verticalAlign=middle;whiteSpace=wrap;rounded=0;fontStyle=1" vertex="1" parent="1">
          <mxGeometry x="100" y="210" width="60" height="110" as="geometry" />
        </mxCell>
        <mxCell id="9bw9Z91mL2RfnUhRrSIE-5" value="Q4 24&lt;span style=&quot;white-space: pre;&quot;&gt;&#x9;&lt;/span&gt;Q1 25&amp;nbsp; &amp;nbsp; &amp;nbsp;Q2 25&amp;nbsp; &amp;nbsp;Q3 25&amp;nbsp; Q4 25&amp;nbsp; Q1 26&amp;nbsp; Q2 26&amp;nbsp; Q3 26&amp;nbsp; Q4 26&amp;nbsp; Q1 27&amp;nbsp; &amp;nbsp;Q2 27&amp;nbsp; &amp;nbsp;Q3 27&amp;nbsp; Q4 27&amp;nbsp; Q1 28&amp;nbsp; Q2 28&amp;nbsp; Q3 28&amp;nbsp; Q4 28&amp;nbsp; Q1 29&amp;nbsp;&amp;nbsp;" style="text;html=1;align=left;verticalAlign=middle;whiteSpace=wrap;rounded=0;" vertex="1" parent="1">
          <mxGeometry x="170" y="399" width="750" height="30" as="geometry" />
        </mxCell>
        <mxCell id="9bw9Z91mL2RfnUhRrSIE-6" value="" style="endArrow=classic;html=1;rounded=0;exitX=0.94;exitY=0.662;exitDx=0;exitDy=0;exitPerimeter=0;" edge="1" parent="1" source="9bw9Z91mL2RfnUhRrSIE-4">
          <mxGeometry width="50" height="50" relative="1" as="geometry">
            <mxPoint x="330" y="210" as="sourcePoint" />
            <mxPoint x="550" y="290" as="targetPoint" />
            <Array as="points">
              <mxPoint x="230" y="290" />
              <mxPoint x="300" y="240" />
              <mxPoint x="420" y="283" />
              <mxPoint x="480" y="280" />
            </Array>
          </mxGeometry>
        </mxCell>
        <mxCell id="9bw9Z91mL2RfnUhRrSIE-7" value="" style="endArrow=classic;html=1;rounded=0;" edge="1" parent="1">
          <mxGeometry width="50" height="50" relative="1" as="geometry">
            <mxPoint x="160" y="120" as="sourcePoint" />
            <mxPoint x="610" y="280" as="targetPoint" />
            <Array as="points">
              <mxPoint x="310" y="190" />
              <mxPoint x="410" y="250" />
            </Array>
          </mxGeometry>
        </mxCell>
      </root>
    </mxGraphModel>
  </diagram>
</mxfile>
